# xmcd
#
# Track frame offsets:
#	150
#	10701
#	22245
#	35370
#	47137
#	55856
#	65574
#	78542
#	92935
#	100204
#	110998
#	123179
#	138896
#	149439
#	164057
#	177237
#	190180
#	204447
#	215817
#	226574
#	235616
#	243822
#	260303
#	272848
#
# Disc length: 3778 seconds
#
# Revision: 1
# Processed by: cddbd v1.5.2PL0 Copyright (c) Steve Scherf et al.
# Submitted via: audiograbber 1.83.01
#
DISCID=570ec018
DTITLE=Don Williams and The Pozo-Seco Singers - Time For (The Best Of The 1966 Re
DTITLE=cordings)
DYEAR=2011
DGENRE=Country
TTITLE0=I Can Make It With You
TTITLE1=If I Were A Carpenter
TTITLE2=Johnny
TTITLE3=Changes
TTITLE4=Forget His Name
TTITLE5=Mary Jenkins
TTITLE6=Look What You've Done
TTITLE7=Almost Persuaded
TTITLE8=Diet
TTITLE9=Ribbon Of Darkness
TTITLE10=Blue Eyes
TTITLE11=Time
TTITLE12=It Ain't Worth The Lonely Road Back
TTITLE13=Tomorrow Is A Long Time
TTITLE14=If I Fell
TTITLE15=Come A Little Bit Closer
TTITLE16=Guantanamera
TTITLE17=I'll Be Gone
TTITLE18=Silver Threads And Golden Needles
TTITLE19=The House Of The Rising Sun
TTITLE20=She Understands Me
TTITLE21=You've Lost That Lovin' Feelin'
TTITLE22=I Believe It All
TTITLE23=Lousiana Man
EXTD=
EXTT0=
EXTT1=
EXTT2=
EXTT3=
EXTT4=
EXTT5=
EXTT6=
EXTT7=
EXTT8=
EXTT9=
EXTT10=
EXTT11=
EXTT12=
EXTT13=
EXTT14=
EXTT15=
EXTT16=
EXTT17=
EXTT18=
EXTT19=
EXTT20=
EXTT21=
EXTT22=
EXTT23=
PLAYORDER=
